:SAMPLES-PER-SECOND 30
:FULLY-SPECIFIED
:DEGREES
587
root  -25.7224 33.342 26.8063 -172.723 -20.0417 176.117
RightUpLeg  -32.0152 -32.9496 -3.06193
RightLeg  38.8451 -7.60965 -5.34839
RightFoot  2.94728 0.0242948 -0.366228
RightToes  -23.3751 -0.101062 -0.20339
Spine  0.561672 -0.233931 1.03336
Spine1  1.16118 -0.606302 2.65766
HEad  -31.288 31.9475 -6.28806
LeftShoulder1  -1.94126e-019 -3.10601e-018 -2.51263e-017
LeftArm  -26.4315 21.4484 -70.8458
LeftForeArm  23.9359 -56.8383 -15.2726
LeftHand  -0.407813 1.8881 13.4021
RightShoulder  -4.96962e-017 0 -2.36833e-017
RightArm  -40.4778 -27.606 65.5629
RightForeArm  56.6877 11.1636 1.53227
RightHand  -0.317628 -0.353655 -7.32706
LeftUpLeg  -20.8164 2.53999 3.1123
LeftLeg  28.2887 3.24428 1.48044
LeftFoot  -1.45433 0.00635318 -0.020729
LeftToes  -45.6949 2.32378e-006 -5.43956e-008
588
root  -25.5106 33.0963 27.4016 -171.499 -20.2705 174.001
RightUpLeg  -36.9459 -32.353 -5.30378
RightLeg  45.2483 -4.20392 -3.75329
RightFoot  5.78432 0.0510189 -0.44665
RightToes  -29.0654 -0.137538 -0.245418
Spine  1.09236 0.188153 0.16199
Spine1  2.2066 0.314932 0.95899
HEad  -32.3773 34.1267 -5.53119
LeftShoulder1  -1.94126e-019 -3.10601e-018 -2.51263e-017
LeftArm  -28.3553 18.8616 -68.4114
LeftForeArm  18.5067 -54.0458 -14.0562
LeftHand  -0.337701 2.79606 14.8422
RightShoulder  -4.96962e-017 0 -2.36833e-017
RightArm  -38.8204 -24.8038 68.3523
RightForeArm  57.1365 11.9089 1.48723
RightHand  -0.360139 -0.843059 -9.15292
LeftUpLeg  -23.4107 3.02725 1.11574
LeftLeg  30.0184 3.24652 1.60127
LeftFoot  -0.307471 0.000728181 0.0796647
LeftToes  -52.0837 2.32378e-006 -5.43956e-008
589
root  -25.0545 33.0056 27.8216 -170.672 -21.3544 174.62
RightUpLeg  -38.9301 -27.8917 -6.57097
RightLeg  48.1159 0.967427 0.90529
RightFoot  8.23883 0.0171186 0.289597
RightToes  -32.6481 -0.162575 -0.269943
Spine  0.994284 0.812449 0.259529
Spine1  2.01283 1.62607 1.1193
HEad  -32.0221 33.9538 -4.37513
LeftShoulder1  -1.94126e-019 -3.10601e-018 -2.51263e-017
LeftArm  -29.6513 16.4433 -67.7727
LeftForeArm  18.8038 -49.6878 -11.8265
LeftHand  -0.417587 1.88845 13.73
RightShoulder  -4.96962e-017 0 -2.36833e-017
RightArm  -35.2396 -23.4318 70.162
RightForeArm  56.0891 13.4865 1.32519
RightHand  -0.378095 -1.32595 -10.7022
LeftUpLeg  -25.9487 5.7199 1.77719
LeftLeg  30.6045 0.973296 0.489556
LeftFoot  0.146409 6.34291e-005 0.112006
LeftToes  -55.7782 2.32378e-006 -5.43956e-008
590
root  -24.5598 33.0589 27.9757 -171.07 -23.6486 175.387
RightUpLeg  -36.8959 -22.7804 -8.84199
RightLeg  49.1243 4.87038 4.88343
RightFoot  4.58048 -0.00668737 0.659701
RightToes  -34.918 -0.179211 -0.284653
Spine  0.976455 1.03826 0.527062
Spine1  1.97961 2.12275 1.64576
HEad  -30.5895 32.3061 -3.28947
LeftShoulder1  -1.94126e-019 -3.10601e-018 -2.51263e-017
LeftArm  -29.5406 14.8714 -67.8892
LeftForeArm  18.0594 -45.2747 -10.0546
LeftHand  -0.268547 3.24908 14.1394
RightShoulder  -4.96962e-017 0 -2.36833e-017
RightArm  -30.0044 -21.7279 71.1005
RightForeArm  53.4371 15.052 1.17334
RightHand  -0.361415 -1.5338 -10.7516
LeftUpLeg  -26.3224 5.20871 3.10685
LeftLeg  29.7145 0.675365 0.325349
LeftFoot  1.00394 0.00129995 0.135416
LeftToes  -57.35 2.32378e-006 -5.43956e-008
591
root  -24.0384 33.1614 27.9578 -171.617 -26.6306 175.167
RightUpLeg  -32.5109 -18.3047 -11.6544
RightLeg  47.7336 4.22684 4.03748
RightFoot  0.831779 0.00165552 0.224325
RightToes  -36.2641 -0.189348 -0.293061
Spine  1.0277 0.83104 0.468993
Spine1  2.07154 1.71615 1.59002
HEad  -29.7744 30.3143 -2.58111
LeftShoulder1  -1.94126e-019 -3.10601e-018 -2.51263e-017
LeftArm  -27.0172 15.0278 -67.6302
LeftForeArm  18.1547 -40.9671 -8.53656
LeftHand  -0.221452 3.45102 12.7026
RightShoulder  -4.96962e-017 0 -2.36833e-017
RightArm  -24.3592 -19.5705 71.9993
RightForeArm  50.6989 16.8314 1.22464
RightHand  -0.315761 -1.62422 -9.58204
LeftUpLeg  -25.2651 1.90074 3.9739
LeftLeg  27.3535 2.3043 1.00569
LeftFoot  1.53771 -0.000635224 0.208867
LeftToes  -56.5972 2.32378e-006 -5.43956e-008
